#Comment line ignore any data following # character 
#Hierarchical Translation and Rotation (.htr) file 
[Header]	
#Header keywords are followed by a single value 
FileType HTR		#Single word string
DataType HTRS		#Translation followed by rotation and scale data
FileVersion 1		#integer
NumSegments 64		#integer
NumFrames 3		#integer
DataFrameRate 30		#integer, data frame rate in this file
EulerRotationOrder ZYX
CalibrationUnits mm
RotationUnits Degrees
GlobalAxisofGravity Y
BoneLengthAxis Y
ScaleFactor 1.00
[SegmentNames&Hierarchy]
#CHILD	PARENT
Pinger_Root GLOBAL
Pelvis Pinger_Root
L_Hip Pelvis
R_Hip Pelvis
Rear_Leg01 Pelvis
Spine1 Pelvis
L_Leg01 L_Hip
L_Leg02 L_Leg01
L_Leg03 L_Leg02
L_Foot L_Leg03
L_Toe1_01 L_Foot
L_Toe2_01 L_Foot
L_Toe3_01 L_Foot
planeAlignerLeft L_Foot
L_Toe1_02 L_Toe1_01
L_Toe1_03 L_Toe1_02
L_Toe2_02 L_Toe2_01
L_Toe2_03 L_Toe2_02
L_Toe3_02 L_Toe3_01
L_Toe3_03 L_Toe3_02
planeLockWeightLeft planeAlignerLeft
R_Leg01 R_Hip
R_Leg02 R_Leg01
R_Leg03 R_Leg02
R_Foot R_Leg03
planeAlignerRight R_Foot
R_Toe1_01 R_Foot
R_Toe2_01 R_Foot
R_Toe3_01 R_Foot
planeLockWeightRight planeAlignerRight
R_Toe1_02 R_Toe1_01
R_Toe1_03 R_Toe1_02
R_Toe2_02 R_Toe2_01
R_Toe2_03 R_Toe2_02
R_Toe3_02 R_Toe3_01
R_Toe3_03 R_Toe3_02
Rear_Leg02 Rear_Leg01
Rear_Leg03 Rear_Leg02
Rear_Leg04 Rear_Leg03
Rear_Foot Rear_Leg04
planeAlignerCenter Rear_Foot
Rear_Toe1_01 Rear_Foot
Rear_Toe2_01 Rear_Foot
Rear_Toe3_01 Rear_Foot
planeLockWeightCenter planeAlignerCenter
Rear_Toe1_02 Rear_Toe1_01
Rear_Toe1_03 Rear_Toe1_02
Rear_Toe2_02 Rear_Toe2_01
Rear_Toe2_03 Rear_Toe2_02
Rear_Toe3_02 Rear_Toe3_01
Rear_Toe3_03 Rear_Toe3_02
Back_Bone Spine1
Head Spine1
Motor_Bone Back_Bone
Ping_Mechanism Back_Bone
BN_LookIK Head
bottomMouth Head
L_Mouth01 Head
L_mouthFront Head
mouthGun Head
R_Mouth01 Head
R_mouthFront Head
TopMouth Head
weapon_bone Head
[BasePosition]
#SegmentName Tx, Ty, Tz, Rx, Ry, Rz, BoneLength
Pinger_Root 0.000000 0.000000 0.000000 -90.000000 0.000000 0.000000 10.000000 
Pelvis 0.000000 0.000000 0.000000 0.000000 0.000000 0.000000 10.000000 
L_Hip 0.000000 0.000000 0.000000 0.000000 0.000000 0.000000 10.000000 
R_Hip 0.000000 0.000000 0.000000 0.000000 0.000000 0.000000 10.000000 
Rear_Leg01 0.000000 0.000000 0.000000 0.000000 0.000000 0.000000 10.000000 
Spine1 0.000000 0.000000 0.000000 0.000000 0.000000 0.000000 10.000000 
L_Leg01 0.000000 0.000000 0.000000 0.000000 0.000000 0.000000 10.000000 
L_Leg02 0.000000 0.000000 0.000000 0.000000 0.000000 0.000000 10.000000 
L_Leg03 0.000000 0.000000 0.000000 0.000000 0.000000 0.000000 10.000000 
L_Foot 0.000000 0.000000 0.000000 0.000000 0.000000 0.000000 10.000000 
L_Toe1_01 0.000000 0.000000 0.000000 0.000000 0.000000 0.000000 10.000000 
L_Toe2_01 0.000000 0.000000 0.000000 0.000000 0.000000 0.000000 10.000000 
L_Toe3_01 0.000000 0.000000 0.000000 0.000000 0.000000 0.000000 10.000000 
planeAlignerLeft 0.000000 0.000000 0.000000 0.000000 0.000000 0.000000 10.000000 
L_Toe1_02 0.000000 0.000000 0.000000 0.000000 0.000000 0.000000 10.000000 
L_Toe1_03 0.000000 0.000000 0.000000 0.000000 0.000000 0.000000 10.000000 
L_Toe2_02 0.000000 0.000000 0.000000 0.000000 0.000000 0.000000 10.000000 
L_Toe2_03 0.000000 0.000000 0.000000 0.000000 0.000000 0.000000 10.000000 
L_Toe3_02 0.000000 0.000000 0.000000 0.000000 0.000000 0.000000 10.000000 
L_Toe3_03 0.000000 0.000000 0.000000 0.000000 0.000000 0.000000 10.000000 
planeLockWeightLeft 0.000000 0.000000 0.000000 0.000000 0.000000 0.000000 10.000000 
R_Leg01 0.000000 0.000000 0.000000 0.000000 0.000000 0.000000 10.000000 
R_Leg02 0.000000 0.000000 0.000000 0.000000 0.000000 0.000000 10.000000 
R_Leg03 0.000000 0.000000 0.000000 0.000000 0.000000 0.000000 10.000000 
R_Foot 0.000000 0.000000 0.000000 0.000000 0.000000 0.000000 10.000000 
planeAlignerRight 0.000000 0.000000 0.000000 0.000000 0.000000 0.000000 10.000000 
R_Toe1_01 0.000000 0.000000 0.000000 0.000000 0.000000 0.000000 10.000000 
R_Toe2_01 0.000000 0.000000 0.000000 0.000000 0.000000 0.000000 10.000000 
R_Toe3_01 0.000000 0.000000 0.000000 0.000000 0.000000 0.000000 10.000000 
planeLockWeightRight 0.000000 0.000000 0.000000 0.000000 0.000000 0.000000 10.000000 
R_Toe1_02 0.000000 0.000000 0.000000 0.000000 0.000000 0.000000 10.000000 
R_Toe1_03 0.000000 0.000000 0.000000 0.000000 0.000000 0.000000 10.000000 
R_Toe2_02 0.000000 0.000000 0.000000 0.000000 0.000000 0.000000 10.000000 
R_Toe2_03 0.000000 0.000000 0.000000 0.000000 0.000000 0.000000 10.000000 
R_Toe3_02 0.000000 0.000000 0.000000 0.000000 0.000000 0.000000 10.000000 
R_Toe3_03 0.000000 0.000000 0.000000 0.000000 0.000000 0.000000 10.000000 
Rear_Leg02 0.000000 0.000000 0.000000 0.000000 0.000000 0.000000 10.000000 
Rear_Leg03 0.000000 0.000000 0.000000 0.000000 0.000000 0.000000 10.000000 
Rear_Leg04 0.000000 0.000000 0.000000 0.000000 0.000000 0.000000 10.000000 
Rear_Foot 0.000000 0.000000 0.000000 0.000000 0.000000 0.000000 10.000000 
planeAlignerCenter 0.000000 0.000000 0.000000 0.000000 0.000000 0.000000 10.000000 
Rear_Toe1_01 0.000000 0.000000 0.000000 0.000000 0.000000 0.000000 10.000000 
Rear_Toe2_01 0.000000 0.000000 0.000000 0.000000 0.000000 0.000000 10.000000 
Rear_Toe3_01 0.000000 0.000000 0.000000 0.000000 0.000000 0.000000 10.000000 
planeLockWeightCenter 0.000000 0.000000 0.000000 0.000000 0.000000 0.000000 10.000000 
Rear_Toe1_02 0.000000 0.000000 0.000000 0.000000 0.000000 0.000000 10.000000 
Rear_Toe1_03 0.000000 0.000000 0.000000 0.000000 0.000000 0.000000 10.000000 
Rear_Toe2_02 0.000000 0.000000 0.000000 0.000000 0.000000 0.000000 10.000000 
Rear_Toe2_03 0.000000 0.000000 0.000000 0.000000 0.000000 0.000000 10.000000 
Rear_Toe3_02 0.000000 0.000000 0.000000 0.000000 0.000000 0.000000 10.000000 
Rear_Toe3_03 0.000000 0.000000 0.000000 0.000000 0.000000 0.000000 10.000000 
Back_Bone 0.000000 0.000000 0.000000 0.000000 0.000000 0.000000 10.000000 
Head 0.000000 0.000000 0.000000 0.000000 0.000000 0.000000 10.000000 
Motor_Bone 0.000000 0.000000 0.000000 0.000000 0.000000 0.000000 10.000000 
Ping_Mechanism 0.000000 0.000000 0.000000 0.000000 0.000000 0.000000 10.000000 
BN_LookIK 0.000000 0.000000 0.000000 0.000000 0.000000 0.000000 10.000000 
bottomMouth 0.000000 0.000000 0.000000 0.000000 0.000000 0.000000 10.000000 
L_Mouth01 0.000000 0.000000 0.000000 0.000000 0.000000 0.000000 10.000000 
L_mouthFront 0.000000 0.000000 0.000000 0.000000 0.000000 0.000000 10.000000 
mouthGun 0.000000 0.000000 0.000000 0.000000 0.000000 0.000000 10.000000 
R_Mouth01 0.000000 0.000000 0.000000 0.000000 0.000000 0.000000 10.000000 
R_mouthFront 0.000000 0.000000 0.000000 0.000000 0.000000 0.000000 10.000000 
TopMouth 0.000000 0.000000 0.000000 0.000000 0.000000 0.000000 10.000000 
weapon_bone 0.000000 0.000000 0.000000 0.000000 0.000000 0.000000 10.000000 
#Beginning of Data. Separated by tabs
#Fr	Tx	Ty	Tz	Rx	Ry	Rz	SF
[Pinger_Root]
60 0.000000 0.000000 0.000000 -0.000075 -0.000000 -0.000020 0.000000
61 0.000000 0.000000 0.000000 -0.000075 -0.000000 -0.000020 0.000000
62 0.000000 0.000000 0.000000 -0.000075 -0.000000 -0.000020 0.000000
[Pelvis]
60 571.656799 10448.161133 -3168.739258 -121.013138 -54.555954 120.823425 10933.058594
61 288.317444 10614.503906 -3151.324463 -120.141647 -55.515190 119.205460 11076.175781
62 -61.561901 10761.311523 -3106.413086 -117.500648 -56.929913 116.097343 11200.867188
[L_Hip]
60 5.766392 125.831482 872.656799 -178.253342 -81.787758 87.381340 881.701050
61 5.766392 125.831482 872.656799 -178.253311 -81.787758 87.381340 881.701050
62 5.766392 125.831482 872.656799 -178.253311 -81.787758 87.381340 881.701050
[R_Hip]
60 5.765438 125.836372 -872.654907 -1.746678 81.787712 87.381248 881.699829
61 5.765438 125.836372 -872.654907 -1.746690 81.787712 87.381248 881.699829
62 5.765438 125.836372 -872.654907 -1.746690 81.787712 87.381248 881.699829
[Rear_Leg01]
60 -192.298416 -925.602966 -0.001907 146.313324 -37.908279 -96.053024 945.367432
61 -192.298416 -925.602966 -0.001907 136.524765 -25.806063 -114.198082 945.367432
62 -192.298416 -925.602966 -0.001907 132.762619 -13.118654 -127.311981 945.367432
[Spine1]
60 290.604584 5.007505 0.000477 2.904779 9.723914 9.628478 290.647736
61 290.604584 5.007505 0.000477 3.436683 9.016026 9.601797 290.647736
62 290.604584 5.007505 0.000477 3.967916 8.308411 9.568521 290.647736
[L_Leg01]
60 761.932007 -0.002384 -0.069261 14.726078 -64.052216 51.869297 761.932068
61 761.932007 -0.002384 -0.069261 64.808220 -73.265213 14.388588 761.932068
62 761.932007 -0.002384 -0.069261 27.923464 -75.730354 41.413620 761.932068
[L_Leg02]
60 1441.140503 -0.000954 -0.000715 -5.655097 1.254763 -159.763290 1441.140503
61 1441.140503 -0.000954 -0.000715 4.282074 -0.693645 -152.885468 1441.140503
62 1441.140503 -0.000954 -0.000715 5.422253 -0.852631 -163.001129 1441.140503
[L_Leg03]
60 1686.963989 -0.000715 -0.000954 -0.007295 0.005031 112.709389 1686.963989
61 1686.963989 -0.000715 -0.000954 -0.007312 0.005006 112.316856 1686.963989
62 1686.963989 -0.000715 -0.000954 -0.011409 0.002304 112.834114 1686.963989
[L_Foot]
60 3041.570068 -30.715107 11.297464 -42.345512 8.683781 38.838009 3041.746094
61 3041.570068 -30.715107 11.297464 -60.188755 8.404453 23.561878 3041.746094
62 3041.570068 -30.715107 11.297464 -49.500336 8.004453 27.078701 3041.746094
[L_Toe1_01]
60 -188.216690 -224.732346 -21.137953 89.218849 -2.124470 -157.881287 293.899567
61 -188.216690 -224.732346 -21.137953 89.212006 -2.126683 -157.877563 293.899567
62 -188.216690 -224.732346 -21.137953 89.190224 -1.950512 -158.594894 293.899567
[L_Toe2_01]
60 200.746536 -219.926590 148.838394 -76.717926 -8.900544 -53.174171 332.896027
61 200.746536 -219.926590 148.838394 -76.718063 -8.896997 -53.169678 332.896027
62 200.746536 -219.926590 148.838394 -76.688980 -9.273096 -52.788860 332.896027
[L_Toe3_01]
60 188.832520 -219.859131 -191.078659 -107.209564 10.828858 -55.314770 347.140900
61 188.832520 -219.859131 -191.078659 -107.198128 10.834809 -55.313965 347.140900
62 188.832520 -219.859131 -191.078659 -107.278282 11.568941 -54.759899 347.140900
[planeAlignerLeft]
60 0.812531 -811.448792 -0.314951 0.000000 -90.000000 -90.001900 811.449280
61 0.812531 -811.448792 -0.314951 0.000000 -90.000000 -90.001900 811.449280
62 0.812531 -811.448792 -0.314951 0.000000 -90.000000 -90.001900 811.449280
[L_Toe1_02]
60 413.761139 0.000477 0.000000 0.001424 -20.961100 0.001424 413.761139
61 413.761139 0.000477 0.000000 0.001424 -20.961105 0.001424 413.761139
62 413.761139 0.000477 0.000000 0.001420 -21.450972 0.001420 413.761139
[L_Toe1_03]
60 464.317322 0.000358 -0.000089 0.043951 86.939568 0.043951 464.317322
61 464.317322 0.000358 -0.000089 0.043951 86.939445 0.043951 464.317322
62 464.317322 0.000358 -0.000089 0.027949 85.186188 0.027949 464.317322
[L_Toe2_02]
60 342.235809 -0.000477 0.000238 -0.008632 -64.891136 0.007454 342.235809
61 342.235809 -0.000477 0.000238 -0.008632 -64.891159 0.007454 342.235809
62 342.235809 -0.000477 0.000238 0.001195 -68.174072 0.001195 342.235809
[L_Toe2_03]
60 420.210846 -0.000715 0.000000 -0.001414 69.250450 -0.004969 420.210846
61 420.210846 -0.000715 0.000000 -0.001414 69.250488 -0.004969 420.210846
62 420.210846 -0.000715 0.000000 0.009385 75.633064 0.009385 420.210846
[L_Toe3_02]
60 329.270111 0.000954 0.000000 -0.010876 -70.440697 0.009710 329.270111
61 329.270111 0.000954 0.000000 -0.010873 -70.434677 0.009706 329.270111
62 329.270111 0.000954 0.000000 0.001187 -73.009949 0.001187 329.270111
[L_Toe3_03]
60 439.137451 -0.001907 0.000954 -0.002458 74.355110 -0.005988 439.137451
61 439.137451 -0.001907 0.000954 -0.002458 74.355141 -0.005987 439.137451
62 439.137451 -0.001907 0.000954 0.013219 79.812500 0.013219 439.137451
[planeLockWeightLeft]
60 -0.000954 0.000238 -0.000305 -0.011826 -0.004376 0.005620 0.001029
61 -0.000954 0.000238 -0.000305 -0.011826 -0.004376 0.005620 0.001029
62 -0.000954 0.000238 -0.000305 -0.011826 -0.004376 0.005620 0.001029
[R_Leg01]
60 761.455627 -0.001907 -0.000358 91.121223 -59.173012 116.355583 761.455688
61 761.455627 -0.001907 -0.000358 95.317551 -48.828529 107.550400 761.455688
62 761.455627 -0.001907 -0.000358 99.812462 -42.807747 96.757881 761.455688
[R_Leg02]
60 1441.140625 0.000000 -0.000238 -1.387740 -0.494352 -169.867737 1441.140625
61 1441.140625 0.000000 -0.000238 -1.494133 -0.751371 -169.332260 1441.140625
62 1441.140625 0.000000 -0.000238 -1.532442 -0.876566 -169.692780 1441.140625
[R_Leg03]
60 1686.963989 0.000954 0.001431 0.093634 -0.054164 135.232422 1686.963989
61 1686.963989 0.000954 0.001431 0.115609 -0.071556 141.702042 1686.963989
62 1686.963989 0.000954 0.001431 0.126436 -0.080489 144.252457 1686.963989
[R_Foot]
60 3041.560059 -30.531288 -11.204481 -11.565767 -20.814569 101.900223 3041.734131
61 3041.560059 -30.531288 -11.204481 -5.797249 -20.664600 102.140442 3041.734131
62 3041.560059 -30.531288 -11.204481 1.468236 -20.701941 101.735542 3041.734131
[planeAlignerRight]
60 -0.635147 -812.270569 -0.364304 0.000000 -89.960434 -90.005180 812.270874
61 -0.635147 -812.270569 -0.364304 0.000000 -89.960434 -90.005180 812.270874
62 -0.635147 -812.270569 -0.364304 0.000000 -89.960434 -90.005180 812.270874
[R_Toe1_01]
60 -188.383347 -224.864899 21.052242 90.295746 2.085951 -171.689590 294.101532
61 -188.383347 -224.864899 21.052242 90.352074 2.068021 -169.607529 294.101532
62 -188.383347 -224.864899 21.052242 90.488235 2.055678 -166.686325 294.101532
[R_Toe2_01]
60 200.637817 -220.002121 -148.787384 -100.428818 13.966345 -37.457325 332.857574
61 200.637817 -220.002121 -148.787384 -100.979660 13.537846 -39.791172 332.857574
62 200.637817 -220.002121 -148.787384 -101.683418 12.923977 -42.963028 332.857574
[R_Toe3_01]
60 188.606735 -220.092957 191.126343 -76.200912 -17.419630 -39.343323 347.192566
61 188.606735 -220.092957 191.126343 -75.522026 -16.853086 -41.702541 347.192566
62 188.606735 -220.092957 191.126343 -74.612663 -16.040874 -44.856152 347.192566
[planeLockWeightRight]
60 -0.000477 0.000000 0.000000 -0.011823 -0.004379 -0.000027 0.000477
61 -0.000477 0.000000 0.000000 -0.011823 -0.004379 -0.000027 0.000477
62 -0.000477 0.000000 0.000000 -0.011823 -0.004379 -0.000027 0.000477
[R_Toe1_02]
60 413.762085 0.000477 -0.000119 0.001426 -20.770012 0.001426 413.762085
61 413.762085 0.000477 -0.000119 0.001422 -21.192514 0.001422 413.762085
62 413.762085 0.000477 -0.000119 0.001417 -21.891018 0.001417 413.762085
[R_Toe1_03]
60 464.317810 0.000000 0.001088 -0.030625 87.718956 -0.027128 464.317810
61 464.317810 0.000000 0.001088 -0.018629 86.097458 -0.015131 464.317810
62 464.317810 0.000000 0.001088 -0.012119 83.644859 -0.008617 464.317810
[R_Toe2_02]
60 342.234741 -0.000954 0.000238 -0.002334 -78.748489 -0.002334 342.234741
61 342.234741 -0.000954 0.000238 -0.002335 -78.339638 -0.002335 342.234741
62 342.234741 -0.000954 0.000238 -0.002337 -77.677750 -0.002337 342.234741
[R_Toe2_03]
60 420.210846 0.000715 -0.000268 -179.994675 71.391991 -179.998215 420.210846
61 420.210846 0.000715 -0.000268 -179.994232 73.531853 -179.997757 420.210846
62 420.210846 0.000715 -0.000268 -179.993271 76.732742 -179.996780 420.210846
[R_Toe3_02]
60 329.270355 -0.000477 -0.000954 0.001176 -82.398781 0.001176 329.270355
61 329.270355 -0.000477 -0.000954 0.001176 -82.031342 0.001176 329.270355
62 329.270355 -0.000477 -0.000954 0.001177 -81.390404 0.001177 329.270355
[R_Toe3_03]
60 439.137939 0.000238 0.001431 -179.998520 69.671700 -179.994965 439.137939
61 439.137939 0.000238 0.001431 -179.998169 71.684555 -179.994629 439.137939
62 439.137939 0.000238 0.001431 -179.997452 74.678253 -179.993927 439.137939
[Rear_Leg02]
60 1162.777710 -0.029802 0.005960 26.953686 15.200214 -154.629593 1162.777710
61 1162.777710 -0.029802 0.005960 30.204344 4.870903 -138.350739 1162.777710
62 1162.777710 -0.029802 0.005960 29.144182 -9.270366 -116.789841 1162.777710
[Rear_Leg03]
60 607.192505 -0.013351 -0.073195 0.003432 -0.006530 71.654137 607.192505
61 607.192505 -0.013351 -0.073195 0.009863 -0.006234 80.945518 607.192505
62 607.192505 -0.013351 -0.073195 0.009903 -0.006171 80.212845 607.192505
[Rear_Leg04]
60 995.874512 -0.020504 -0.011921 -0.038646 -0.003352 145.585449 995.874573
61 995.874512 -0.020504 -0.011921 -0.039684 -0.005983 124.521942 995.874573
62 995.874512 -0.020504 -0.011921 -0.044894 -0.012216 103.714317 995.874573
[Rear_Foot]
60 3096.176270 -0.067472 -0.041425 -135.055847 56.717892 -11.346492 3096.176270
61 3096.176270 -0.067472 -0.041425 -132.178848 48.767941 5.001452 3096.176270
62 3096.176270 -0.067472 -0.041425 -137.837326 41.288742 16.193155 3096.176270
[planeAlignerCenter]
60 0.350077 0.966311 -838.790894 0.000009 0.000003 -179.999985 838.791565
61 0.350077 0.966311 -838.790894 0.000009 0.000003 -179.999985 838.791565
62 0.350077 0.966311 -838.790894 0.000009 0.000003 -179.999985 838.791565
[Rear_Toe1_01]
60 0.653352 83.966492 -371.173737 0.498857 33.539139 90.804802 380.553192
61 0.653352 83.966492 -371.173737 0.616975 34.144894 90.996170 380.553192
62 0.653352 83.966492 -371.173737 0.738402 34.750290 91.190475 380.553192
[Rear_Toe2_01]
60 178.200760 -294.826019 -362.060547 23.632748 70.312538 -44.018661 499.765686
61 178.200760 -294.826019 -362.060547 10.080832 67.319832 -58.991497 499.765686
62 178.200760 -294.826019 -362.060547 2.877742 64.012871 -67.818878 499.765686
[Rear_Toe3_01]
60 -153.359680 -308.780914 -362.060852 -23.722588 70.318428 -138.092316 499.952881
61 -153.359680 -308.780914 -362.060852 -11.565989 67.128044 -124.942589 499.952881
62 -153.359680 -308.780914 -362.060852 -5.032823 63.702305 -117.191025 499.952881
[planeLockWeightCenter]
60 -0.000062 0.000238 0.000000 -0.011814 -0.004373 -0.000015 0.000246
61 -0.000062 0.000238 0.000000 -0.011814 -0.004373 -0.000015 0.000246
62 -0.000062 0.000238 0.000000 -0.011814 -0.004373 -0.000015 0.000246
[Rear_Toe1_02]
60 379.707825 0.194073 0.000477 0.001333 -33.357986 0.001333 379.707855
61 379.707825 0.194073 0.000477 0.001332 -33.478466 0.001332 379.707855
62 379.707825 0.194073 0.000477 0.001332 -33.598949 0.001332 379.707855
[Rear_Toe1_03]
60 500.129700 0.165701 0.000119 -0.004642 66.792305 -0.001072 500.129761
61 500.129700 0.165701 0.000119 0.006643 69.647598 0.006643 500.129761
62 500.129700 0.165701 0.000119 0.007521 72.044952 0.007521 500.129761
[Rear_Toe2_02]
60 340.494507 0.000238 -0.000954 -0.002323 -88.781952 -0.002323 340.494507
61 340.494507 0.000238 -0.000954 0.001175 -84.179039 0.001175 340.494507
62 340.494507 0.000238 -0.000954 0.001181 -76.980949 0.001181 340.494507
[Rear_Toe2_03]
60 433.103577 0.000000 0.000238 -179.994827 70.529625 -179.998383 433.103546
61 433.103577 0.000000 0.000238 179.980286 83.174728 179.980286 433.103546
62 433.103577 0.000000 0.000238 0.016393 81.716888 0.016393 433.103546
[Rear_Toe3_02]
60 340.494141 -0.000358 -0.000477 0.001174 -88.795692 0.001174 340.494171
61 340.494141 -0.000358 -0.000477 0.001175 -83.879486 0.001175 340.494171
62 340.494141 -0.000358 -0.000477 0.001182 -76.193260 0.001182 340.494171
[Rear_Toe3_03]
60 433.103577 0.001431 -0.000238 -179.998383 70.511505 -179.994827 433.103546
61 433.103577 0.001431 -0.000238 -179.990875 83.937317 -179.987381 433.103546
62 433.103577 0.001431 -0.000238 -0.006857 80.291451 -0.006857 433.103546
[Back_Bone]
60 1312.175781 -701.934692 0.000954 -0.691032 3.186280 -93.326157 1488.125488
61 1312.175781 -701.934692 0.000954 -0.811488 3.185640 -92.878883 1488.125488
62 1312.175781 -701.934692 0.000954 -0.912468 3.184594 -91.735046 1488.125488
[Head]
60 1406.159424 809.709290 0.001431 1.103243 1.684637 4.840292 1622.625488
61 1406.159424 809.709290 0.001431 0.982114 1.725505 4.778816 1622.625488
62 1406.159424 809.709290 0.001431 0.860937 1.766242 4.717250 1622.625488
[Motor_Bone]
60 1158.364380 -417.834747 0.000477 -1.883678 -0.574442 -106.563332 1231.419434
61 1158.364380 -417.834747 0.000477 -1.822661 -0.502348 -106.491142 1231.419434
62 1158.364380 -417.834747 0.000477 -1.761554 -0.430330 -106.418884 1231.419434
[Ping_Mechanism]
60 1308.590698 -451.031189 -47.823727 0.000103 -0.000053 82.120995 1384.964111
61 1308.577759 -452.828369 -44.549145 0.000103 -0.000053 82.120995 1385.429077
62 1308.565063 -454.625580 -41.274563 0.000103 -0.000053 82.120995 1385.904175
[BN_LookIK]
60 193.241119 1380.371704 -0.002861 0.000000 89.965736 -31.038179 1393.832153
61 193.241119 1380.371704 -0.002861 0.000000 89.965736 -31.038179 1393.832153
62 193.241119 1380.371704 -0.002861 0.000000 89.965736 -31.038179 1393.832153
[bottomMouth]
60 -435.092926 615.759399 -0.000954 -0.000022 0.000016 73.527184 753.966492
61 -435.092926 615.759399 -0.000954 -0.000022 0.000016 73.527184 753.966492
62 -435.092926 615.759399 -0.000954 -0.000022 0.000016 73.527184 753.966492
[L_Mouth01]
60 554.440979 7.658243 838.222046 150.204178 23.759130 109.605339 1005.027161
61 554.440979 7.658243 838.222046 150.204178 23.759130 109.605339 1005.027161
62 554.440979 7.658243 838.222046 150.204178 23.759130 109.605339 1005.027161
[L_mouthFront]
60 551.629089 934.514771 339.150421 0.000081 2.804060 79.119301 1136.941284
61 551.629089 934.514771 339.150421 0.000081 2.804060 79.119301 1136.941284
62 551.629089 934.514771 339.150421 0.000081 2.804060 79.119301 1136.941284
[mouthGun]
60 55.332661 1627.420898 0.000000 0.000023 0.000009 -11.038128 1628.361328
61 55.332661 1627.420898 0.000000 0.000023 0.000009 -11.038128 1628.361328
62 55.332661 1627.420898 0.000000 0.000023 0.000009 -11.038128 1628.361328
[R_Mouth01]
60 554.442383 7.659197 -838.223938 29.795891 -23.759109 109.605331 1005.029541
61 554.442383 7.659197 -838.223938 29.795891 -23.759109 109.605331 1005.029541
62 554.442383 7.659197 -838.223938 29.795891 -23.759109 109.605331 1005.029541
[R_mouthFront]
60 551.629089 934.514282 -339.151367 0.000029 -2.803930 79.119133 1136.941162
61 551.629089 934.514282 -339.151367 0.000029 -2.803930 79.119133 1136.941162
62 551.629089 934.514282 -339.151367 0.000029 -2.803930 79.119133 1136.941162
[TopMouth]
60 461.269867 -56.106091 -0.008583 -0.000059 -0.000268 92.025169 464.669525
61 461.269867 -56.106091 -0.008583 -0.000059 -0.000268 92.025169 464.669525
62 461.269867 -56.106091 -0.008583 -0.000059 -0.000268 92.025169 464.669525
[weapon_bone]
60 -987.239868 1448.372803 0.001431 0.000000 89.965736 -31.038221 1752.833740
61 -987.239868 1448.372803 0.001431 0.000000 89.965736 -31.038221 1752.833740
62 -987.239868 1448.372803 0.001431 0.000000 89.965736 -31.038221 1752.833740
